<?xml version="1.0" standalone="no"?>
<!DOCTYPE svg PUBLIC "-//W3C//DTD SVG 20010904//EN"
 "http://www.w3.org/TR/2001/REC-SVG-20010904/DTD/svg10.dtd">
<svg version="1.0" xmlns="http://www.w3.org/2000/svg"
 width="256.000000pt" height="256.000000pt" viewBox="0 0 256.000000 256.000000"
 preserveAspectRatio="xMidYMid meet">
<metadata>
Created by potrace 1.15, written by Peter Selinger 2001-2017
</metadata>
<g transform="translate(0.000000,256.000000) scale(0.100000,-0.100000)"
fill="#000000" stroke="none">
<path d="M470 1280 l0 -610 810 0 810 0 0 610 0 610 -810 0 -810 0 0 -610z
m1362 433 c-28 -32 -156 -163 -284 -290 -200 -199 -238 -233 -264 -233 -25 0
-70 41 -319 290 l-290 290 604 0 603 0 -50 -57z m-1012 -602 c-92 -97 -180
-187 -194 -200 l-26 -24 0 394 0 394 194 -194 195 -195 -169 -175z m1138 -26
l-3 -197 -189 197 -189 197 189 189 189 189 3 -189 c1 -104 1 -278 0 -386z
m-760 0 c39 -19 130 -22 164 -5 13 7 47 35 75 63 29 28 54 49 55 46 2 -3 91
-93 198 -202 l195 -197 -605 0 -605 0 200 200 200 200 45 -44 c25 -24 60 -51
78 -61z"/>
</g>
</svg>
