<?xml version="1.0" standalone="no"?>
<!DOCTYPE svg PUBLIC "-//W3C//DTD SVG 20010904//EN"
 "http://www.w3.org/TR/2001/REC-SVG-20010904/DTD/svg10.dtd">
<svg version="1.0" xmlns="http://www.w3.org/2000/svg"
 width="256.000000pt" height="256.000000pt" viewBox="0 0 256.000000 256.000000"
 preserveAspectRatio="xMidYMid meet">
<metadata>
Created by potrace 1.15, written by Peter Selinger 2001-2017
</metadata>
<g transform="translate(0.000000,256.000000) scale(0.100000,-0.100000)"
fill="#000000" stroke="none">
<path d="M1230 2077 c-50 -18 -610 -335 -638 -361 -52 -46 -52 -50 -52 -436 0
-386 0 -390 52 -436 26 -24 533 -313 616 -352 41 -19 63 -23 93 -18 41 7 623
329 667 369 52 47 52 51 52 437 0 375 -1 381 -44 428 -30 34 -138 92 -170 92
-67 0 -126 -59 -212 -211 -54 -95 -59 -109 -59 -164 0 -73 24 -119 115 -218
79 -85 88 -126 42 -178 -26 -29 -36 -34 -72 -33 -61 2 -90 34 -99 110 -8 70
-34 114 -66 114 -27 0 -67 -36 -90 -79 -24 -47 -56 -182 -46 -195 28 -37 15
-113 -26 -146 -17 -13 -41 -20 -69 -20 -110 0 -153 136 -63 200 29 22 42 54
99 254 17 60 29 114 26 120 -2 6 -16 -17 -32 -52 -21 -48 -31 -61 -44 -57 -22
7 -124 -74 -145 -115 -19 -38 -62 -70 -92 -70 -54 0 -103 48 -103 100 0 45 23
69 104 109 80 40 307 201 315 223 2 6 -25 -5 -60 -24 -39 -21 -85 -38 -117
-42 -30 -4 -75 -19 -101 -33 -34 -19 -54 -24 -73 -20 -66 17 -89 92 -45 143
22 25 27 26 98 24 139 -6 191 -1 246 26 73 35 122 87 181 194 100 179 94 228
-33 293 -64 33 -111 40 -155 24z"/>
</g>
</svg>
