<?xml version="1.0" standalone="no"?>
<!DOCTYPE svg PUBLIC "-//W3C//DTD SVG 20010904//EN"
 "http://www.w3.org/TR/2001/REC-SVG-20010904/DTD/svg10.dtd">
<svg version="1.0" xmlns="http://www.w3.org/2000/svg"
 width="256.000000pt" height="256.000000pt" viewBox="0 0 256.000000 256.000000"
 preserveAspectRatio="xMidYMid meet">
<metadata>
Created by potrace 1.15, written by Peter Selinger 2001-2017
</metadata>
<g transform="translate(0.000000,256.000000) scale(0.100000,-0.100000)"
fill="#000000" stroke="none">
<path d="M1522 1929 c-60 -11 -137 -56 -179 -102 -58 -64 -87 -140 -87 -224 0
-67 -2 -72 -21 -68 -11 2 -42 7 -70 10 -27 4 -86 18 -130 32 -146 46 -248 108
-368 222 -87 84 -86 84 -113 -8 -23 -76 -14 -156 25 -236 18 -35 46 -76 64
-91 l32 -27 -35 8 c-19 4 -50 14 -69 21 l-34 14 6 -54 c11 -106 85 -209 188
-260 l54 -27 -67 4 c-38 3 -68 3 -68 0 0 -2 9 -23 21 -46 45 -90 147 -169 239
-183 l42 -7 -53 -33 c-88 -54 -198 -86 -324 -93 l-110 -6 80 -41 c255 -131
545 -146 807 -40 312 126 547 460 565 801 l5 100 52 50 c70 69 119 125 113
132 -3 3 -25 -2 -49 -11 -24 -8 -60 -20 -81 -25 l-38 -10 39 39 c41 41 91 125
80 135 -3 4 -28 -5 -55 -18 -26 -14 -71 -31 -98 -40 -49 -14 -51 -14 -80 10
-45 36 -94 59 -153 72 -59 12 -69 12 -130 0z"/>
</g>
</svg>
